<?xml version="1.0" encoding="iso-8859-1"?>
<!-- Uploaded to: SVG Repo, www.svgrepo.com, Generator: SVG Repo Mixer Tools -->
<svg fill="#000000" height="800px" width="800px" version="1.1" id="Layer_1" xmlns="http://www.w3.org/2000/svg" xmlns:xlink="http://www.w3.org/1999/xlink" 
	 viewBox="0 0 512 512" xml:space="preserve">
<g>
	<g>
		<g>
			<path d="M362.667,95.893c0-35.221-28.672-63.893-63.893-63.893h-85.547c-35.221,0-63.893,28.672-63.893,63.893v21.44H128V480h256
				V117.333h-21.333V95.893z M320,117.333H192v-21.44c0-11.712,9.515-21.227,21.227-21.227h85.547
				c11.712,0,21.227,9.515,21.227,21.227V117.333z"/>
			<path d="M0,181.353v234.624c0,35.285,28.736,64.021,64.021,64.021h21.312V117.331H64.021C28.736,117.331,0,146.067,0,181.353z"/>
			<path d="M447.979,117.331h-21.312v362.667h21.312c35.285,0,64.021-28.736,64.021-64.021V181.353
				C512,146.067,483.264,117.331,447.979,117.331z"/>
		</g>
	</g>
</g>
</svg>